<svg xmlns="http://www.w3.org/2000/svg" width="28.59" height="42.88" viewBox="0 0 28.59 42.88"><defs><style>.a{opacity:0.8;}.b{fill:#fcee21;}</style></defs><title>Untitled-2</title><g class="a"><path class="b" d="M22.22,7.88c6.54,9.72,10.72,16.48,10.72,22.34a10.72,10.72,0,0,1-21.44,0C11.5,24.36,15.69,17.59,22.22,7.88Zm0-6.38C13.52,14.36,7.93,22.4,7.93,30.22a14.3,14.3,0,0,0,28.59,0C36.52,22.4,30.92,14.36,22.22,1.5ZM27,22.94c1.73,6.23-.73,12.26-4.75,13.9C28.15,37.69,32.93,30.65,27,22.94Z" transform="translate(-7.93 -1.5)"/></g></svg>