<svg xmlns="http://www.w3.org/2000/svg" width="42.83" height="29.35" viewBox="0 0 42.83 29.35"><defs><style>.a{fill:#fcee21;opacity:0.8;}</style></defs><title>Untitled-2</title><path class="a" d="M20.44,18.73H0.81V15.16H20.44a1.78,1.78,0,1,0-1.62-2.52L15.7,10.93A5.33,5.33,0,0,1,20.44,8C27.52,8,27.52,18.73,20.44,18.73ZM32.93,32a5.36,5.36,0,0,0-5.35-5.35H0.81v3.57H27.58A1.78,1.78,0,1,1,26,32.76l-3.12,1.71A5.34,5.34,0,0,0,32.93,32ZM34.74,18a2.67,2.67,0,1,1,2.65,3H0.81v3.57H37.39a6.25,6.25,0,1,0-6-7.82Z" transform="translate(-0.81 -8.02)"/></svg>