<svg xmlns="http://www.w3.org/2000/svg" width="35.41" height="35.41" viewBox="0 0 35.41 35.41"><defs><style>.a{fill:#fcee21;}</style></defs><title>icon-temperature</title><path class="a" d="M22.5,7.8A14.76,14.76,0,1,1,7.74,22.56,14.77,14.77,0,0,1,22.5,7.8Zm0-3A17.71,17.71,0,1,0,40.21,22.56,17.71,17.71,0,0,0,22.5,4.85Zm8.63,18.38a0.28,0.28,0,0,1,0,.55c-2.81.53-8.92,1.64-9.66,1.64a1.92,1.92,0,0,1-1.92-1.92c0-.76,1.14-8,1.66-11a0.26,0.26,0,0,1,.51,0l1.45,9.2Z" transform="translate(-4.79 -4.85)"/></svg>