<svg xmlns="http://www.w3.org/2000/svg" width="150" height="30.18" viewBox="0 0 150 30.18"><defs><style>.a{fill:#fff;}</style></defs><title>ruuvi-logo</title><path class="a" d="M112.72,31a3.61,3.61,0,0,1-2.23-1.07,3.18,3.18,0,0,1-.71-1.43c-0.11-.53-0.09-0.76-0.09-6.5,0-6.87,0-6.24.38-7.24a3.42,3.42,0,0,1,1.32-1.34,4.32,4.32,0,0,1,2.54-.41,2.91,2.91,0,0,1,2.94,2.88s0,0.1,0,.14v6.33c0,5.67,0,5.43-.13,6.12A3.24,3.24,0,0,1,115,30.62a4.72,4.72,0,0,1-2.32.35h0Zm-47.8,0a12.07,12.07,0,0,1-8.55-4,11.89,11.89,0,0,1-3-6.19c-0.2-1.19-.22-2.06-0.2-9.59,0-8.08-.08-7.19.42-8.29a3.26,3.26,0,0,1,2.11-1.68,5.31,5.31,0,0,1,2.13,0,3.41,3.41,0,0,1,2.42,2.5c0.08,0.29.08,1,.11,8v7.65a4.72,4.72,0,0,0,2.16,3.61A5.5,5.5,0,0,0,71,19c0-.29,0-3.16,0-7.69,0-8,0-7.55.34-8.33a3.42,3.42,0,0,1,2.3-1.78,5.85,5.85,0,0,1,2.11,0A3.49,3.49,0,0,1,77.29,2a3,3,0,0,1,.94,1.8v7.93c0,8.91,0,8.5-.39,10a12.34,12.34,0,0,1-13,9.21h0ZM7.47,31a3.6,3.6,0,0,1-2.23-1.07,4.25,4.25,0,0,1-.71-1.42c-0.09-.59-0.09-0.85-0.09-8.17,0-6.11,0-7.92.07-8.35A12,12,0,0,1,7.82,4.92a12.18,12.18,0,0,1,8.67-3.85,4.48,4.48,0,0,1,2,.22,3.47,3.47,0,0,1,1.94,1.89,4.33,4.33,0,0,1,.25,1.72,3.09,3.09,0,0,1-2,3A6.36,6.36,0,0,1,17,8.27,6.18,6.18,0,0,0,14.54,9a5.33,5.33,0,0,0-2.38,2.32,7.08,7.08,0,0,0-.41,1.15c-0.1.65-.07,2.09-0.09,8,0,6.89.06,7.43-.14,8.13a3.2,3.2,0,0,1-1.73,2.11A4.72,4.72,0,0,1,7.47,31Zm83.35-2.14c-0.25-.5-9.15-23.09-9.27-23.54a2.83,2.83,0,0,1,0-1.76,3.78,3.78,0,0,1,2.74-2.46,4.17,4.17,0,0,1,2.6.28,3.62,3.62,0,0,1,1.21,1.2c0.24,0.4.2,0.32,3.47,8.64C92.83,14.43,93.89,17,93.9,17s1.27-3.19,2.83-7c1.94-4.94,2.83-7.13,3-7.41a3.15,3.15,0,0,1,2-1.5,5,5,0,0,1,2.12.1,3.78,3.78,0,0,1,1.57,1,2.88,2.88,0,0,1,.84,1.42,2.83,2.83,0,0,1,0,1.65c-0.1.42-8.94,22.9-9.28,23.6a3.29,3.29,0,0,1-6.15,0h0Z" transform="translate(-4.43 -0.89)"/><path class="a" d="M36.18,31a12.07,12.07,0,0,1-8.58-4,11.89,11.89,0,0,1-3-6.19c-0.2-1.19-.22-2-0.2-9.56,0-8.08-.08-7.19.42-8.29a3.26,3.26,0,0,1,2.14-1.71,5.3,5.3,0,0,1,2.13,0,3.41,3.41,0,0,1,2.43,2.48c0.08,0.29.08,1,.11,8v7.65A4.72,4.72,0,0,0,33.75,23a5.67,5.67,0,0,0,6,.09A5.45,5.45,0,0,0,42.3,19c0-.29,0-3.16,0-7.69,0-8,0-7.55.34-8.33a3.42,3.42,0,0,1,2.25-1.77,5.85,5.85,0,0,1,2.11,0,3.47,3.47,0,0,1,1.51.82,3,3,0,0,1,.94,1.8v7.93c0,8.91,0,8.5-.39,10a12.34,12.34,0,0,1-13,9.21h0Z" transform="translate(-4.43 -0.89)"/><circle class="a" cx="108.78" cy="4.52" r="4.52"/><path class="a" d="M139.39,1a15,15,0,1,0,15,15h0a15,15,0,0,0-15-15h0Zm3.12,24.9a9.58,9.58,0,0,1-9.58-9.49,6.61,6.61,0,0,0,7.91-9.54A9.58,9.58,0,1,1,142.51,25.87Z" transform="translate(-4.43 -0.89)"/></svg>